<?xml version="1.0" encoding="utf-8"?>
<!-- Generator: Adobe Illustrator 25.0.1, SVG Export Plug-In . SVG Version: 6.00 Build 0)  -->
<svg version="1.0" id="Layer_1" xmlns="http://www.w3.org/2000/svg" xmlns:xlink="http://www.w3.org/1999/xlink" x="0px" y="0px"
	 viewBox="0 0 921.1 593" style="enable-background:new 0 0 921.1 593;" xml:space="preserve">
<style type="text/css">
	.st0{fill:#27211F;}
</style>
<path class="st0" d="M180.5,303.7c19-5.9,31.7-21.6,31.7-39.1c0-22.8-20.8-41.3-46.3-41.3H92v146.4h24.7v-57.8h17.9
	c15.3,0,20.1,0.5,28,11.6l30.1,46.3h28.4l-42.8-65.4L180.5,303.7z M116.7,289.5v-44h49.8c11.9,0,21.1,11.8,21.1,22
	c0,12.6-11.4,22-21.6,22H116.7z"/>
<path class="st0" d="M260.9,296.4c0-29.2,23.6-52.9,52.8-53c13.8,0,28.1,6.5,40.1,18.2l0.8,0.8l18.2-16.5l-1-0.9
	c-9.7-9-18.7-15.1-27.4-18.8c-9.8-4-20.2-6.1-30.7-6.2c-10.6,0-21.2,2-31,6c-9.3,3.9-17.8,9.6-24.9,16.8
	c-29.6,29.1-30,76.7-0.9,106.3c0.3,0.3,0.6,0.6,0.9,0.9c7.1,7.2,15.6,13,25,16.9c19.8,8.2,42,8.2,61.8-0.1c9.1-4,18.3-10.5,27.3-19
	l1-0.9L354,330.6l-0.8,0.8c-11.5,11.6-25.9,18.2-39.5,18.2C284.5,349.6,260.9,325.7,260.9,296.4z"/>
<path class="st0" d="M527,223.2h-25.1v63.2h-70.2l-0.1-63.2h-25.1v146.4h25.1l0.1-60.9h70.2v60.9h25.1L527,223.2z"/>
<path class="st0" d="M805.8,242.9c-30.7-30.6-80.4-30.5-111,0.1c-0.2,0.2-0.4,0.4-0.6,0.6c-14,14.4-22,33.6-22,52.7
	c0,41.5,35.9,76.7,78.4,76.7c21.3,0,41.6-8.7,56.2-24.1c14.1-14.6,22.2-33.7,22.2-52.6C829,276.8,820.5,257.4,805.8,242.9z
	 M750.6,349.6c-29.2,0-52.8-23.9-52.8-53.3c0-29.2,23.6-52.9,52.8-53c29,0,52.6,23.8,52.6,53S779.6,349.6,750.6,349.6L750.6,349.6z"
	/>
<path class="st0" d="M591.3,328.4V223.2h-25.1v105.1c0,22.8,20.5,41.3,45.8,41.3h52.1v-22.3H612
	C600.3,347.4,591.3,338.9,591.3,328.4z"/>
</svg>
